<svg xmlns="http://www.w3.org/2000/svg" width="37.454" height="33.294" viewBox="0 0 37.454 33.294">
  <path id="house-chimney-solid" d="M4.173,18.7,4.128,29.113a4.675,4.675,0,0,0,.033.527v1.053a2.6,2.6,0,0,0,2.6,2.6H7.8c.072,0,.143-.059.215-.007.091-.052.182.007.273.007h3.674a2.6,2.6,0,0,0,2.6-2.6V24.971a2.079,2.079,0,0,1,2.081-2.081h4.162a2.079,2.079,0,0,1,2.081,2.081v5.722a2.6,2.6,0,0,0,2.6,2.6h3.635c.1,0,.2-.007.293-.013.078.007.156.013.234.013h1.04a2.6,2.6,0,0,0,2.6-2.6V23.41c0-.059,0-.124-.006-.182V18.7H35.37a2.061,2.061,0,0,0,2.084-2.087,2.113,2.113,0,0,0-.651-1.561L20.131.521A1.874,1.874,0,0,0,18.7,0a2.187,2.187,0,0,0-1.372.456L10.4,6.548V4.162A2.08,2.08,0,0,0,8.322,2.081H6.241A2.08,2.08,0,0,0,4.16,4.162V12.03L.727,15.054a1.766,1.766,0,0,0-.715,1.561A2.1,2.1,0,0,0,2.092,18.7Z"/>
</svg>
